<?xml version="1.0" encoding="utf-8"?>
<!-- Generator: Adobe Illustrator 25.0.1, SVG Export Plug-In . SVG Version: 6.00 Build 0)  -->
<svg version="1.1" id="Layer_1" xmlns="http://www.w3.org/2000/svg" xmlns:xlink="http://www.w3.org/1999/xlink" x="0px" y="0px"
	 viewBox="0 0 512 512" style="enable-background:new 0 0 512 512;" xml:space="preserve">
<style type="text/css">
	.st0{fill:#333333;}
</style>
<path class="st0" d="M252.1,198.3v-0.7h9.7v0.7c0,2.3,1.9,4.2,4.2,4.2h1.4c2.3,0,4.2-1.9,4.2-4.2c0-1.6-0.9-3-2.3-3.7l-9.5-4.7
	c-4.7-2.4-7.7-7.1-7.7-12.4c0-6.2,4.1-11.4,9.7-13.2v-10.4h9.7v10.4c5.6,1.8,9.7,7,9.7,13.2v0.7h-9.7v-0.7c0-2.3-1.9-4.2-4.2-4.2
	H266c-2.3,0-4.2,1.9-4.2,4.2c0,1.6,0.9,3,2.3,3.7l9.5,4.7c4.7,2.4,7.7,7.1,7.7,12.4c0,6.2-4.1,11.4-9.7,13.2v10.4h-9.7v-10.4
	C256.2,209.7,252.1,204.5,252.1,198.3z M115.9,105.2h301.7v87.6h-29.2v49c16.5,2.4,29.2,16.5,29.2,33.7c0,18.8-15.3,34.1-34.1,34.1
	c-1,0-2-0.1-3-0.2l-7.5,31.7c6.2,3.3,10.4,9.7,10.4,17.1c0,10.7-8.7,19.5-19.5,19.5s-19.5-8.7-19.5-19.5c0-2.4,0.5-4.7,1.3-6.9
	l-14.2-10l-4.5,9c4.5,2.5,7.6,7.2,7.6,12.8v43.8H208.3V363c0-5.1,2.7-9.6,6.7-12.2l-15.4-20.5c0,0-0.1-0.1-0.1-0.2l-39,39
	c2.5,3.8,4.1,8.4,4.1,13.4c0,13.4-10.9,24.3-24.3,24.3s-24.3-10.9-24.3-24.3c0-13.4,10.9-24.3,24.3-24.3c4.9,0,9.5,1.5,13.4,4.1
	l40.7-40.7c-3.5-7.3-5.4-15.3-5.4-23.4v-17.8h-43.8v-87.6h-29.2V105.2z M154.8,382.5c0-8-6.5-14.6-14.6-14.6
	c-8,0-14.6,6.5-14.6,14.6c0,8,6.5,14.6,14.6,14.6C148.3,397.1,154.8,390.6,154.8,382.5z M154.8,144.1v19c9.5-1.9,17-9.5,19-19H154.8
	z M378.6,212.7c-9.5,1.9-17,9.5-19,19h19V212.7z M378.6,270.6v-9.7H227.8v9.7H378.6z M378.6,241.4H227.8v9.7h150.8V241.4z
	 M378.6,144.1h-19c1.9,9.5,9.5,17,19,19V144.1z M297.4,144.1c13.8,9.7,22.8,25.7,22.8,43.8s-9.1,34.1-22.8,43.8h52.4
	c2.1-14.9,13.9-26.7,28.8-28.8v-30c-14.9-2.1-26.7-13.9-28.8-28.8H297.4z M266.7,144.1c-24.1,0-43.8,19.6-43.8,43.8
	s19.6,43.8,43.8,43.8s43.8-19.6,43.8-43.8S290.9,144.1,266.7,144.1z M236,144.1h-52.4c-2.1,14.9-13.9,26.7-28.8,28.8v30
	c14.9,2.1,26.7,13.9,28.8,28.8h5.3c0-8,6.5-14.6,14.6-14.6c10,0,18.5,6,22.3,14.6H236c-13.8-9.7-22.8-25.7-22.8-43.8
	S222.3,153.8,236,144.1z M154.8,231.7h19c-1.9-9.5-9.5-17-19-19V231.7z M154.8,251.1h34.1v-9.7h-34.1V251.1z M188.9,270.6v-9.7
	h-34.1v9.7H188.9z M207.4,324.4l18,24h91.9l13-26c3-6,4.6-12.8,4.6-19.6v-22.6h-97.9c3.5,4.3,5.4,9.6,5.4,15.3v9h-9.7v-9
	c0-4.9-2.4-9.4-6.5-12.1l-8.1-5.4v-36.7c0-8-6.5-14.6-14.6-14.6c-2.7,0-4.9,2.2-4.9,4.9v66.5C198.6,307.6,201.7,316.9,207.4,324.4z
	 M325.1,363c0-2.7-2.2-4.9-4.9-4.9h-97.3c-2.7,0-4.9,2.2-4.9,4.9v34.1h107V363z M373.8,358.2c0-5.4-4.4-9.7-9.7-9.7
	c-5.4,0-9.7,4.4-9.7,9.7c0,5.4,4.4,9.7,9.7,9.7C369.4,367.9,373.8,363.5,373.8,358.2z M371.1,307.1c-11.2-4.4-19.5-14.6-21.2-26.8
	h-5.3v22.6c0,8.3-2,16.5-5.6,23.9l-2.8,5.6l15.4,10.9c3.3-2.8,7.4-4.5,12.1-4.6L371.1,307.1z M388.4,251.6v28.7h-28.7
	c2.3,11.1,12.1,19.5,23.8,19.5c13.4,0,24.3-10.9,24.3-24.3C407.8,263.7,399.5,253.9,388.4,251.6L388.4,251.6z M125.6,183h19.5v-38.9
	h-9.7v-9.7h262.8v9.7h-9.7V183h19.5v-68.1H125.6V183z"/>
</svg>
