<?xml version="1.0" encoding="utf-8"?>
<!-- Generator: Adobe Illustrator 25.1.0, SVG Export Plug-In . SVG Version: 6.00 Build 0)  -->
<svg version="1.1" xmlns="http://www.w3.org/2000/svg" xmlns:xlink="http://www.w3.org/1999/xlink" x="0px" y="0px"
	 viewBox="0 0 512 512" style="enable-background:new 0 0 512 512;" xml:space="preserve">
<style type="text/css">
	.st0{fill:none;stroke:#000000;stroke-width:4;stroke-miterlimit:10;}
	.st1{display:none;}
	.st2{display:inline;fill:none;stroke:#FF0000;stroke-width:2;stroke-miterlimit:10;}
</style>
<g id="Icon">
	<g>
		<path class="st0" d="M389.9,260.5l-8.1,13.2c-2.6,4.2-3.6,9.2-2.8,14.1l2.4,15.3c0.5,3.2-0.8,6.4-3.4,8.3l-12.5,9.1
			c-4,2.9-6.8,7.2-8,12l-3.6,15c-0.8,3.2-3.2,5.6-6.3,6.3l-15,3.6c-4.8,1.2-9.1,4-12,8l-9.1,12.5c-1.9,2.6-5.1,3.9-8.3,3.4
			l-15.3-2.4c-4.9-0.8-9.9,0.2-14.1,2.8l-13.2,8.1c-2.8,1.7-6.2,1.7-9,0l-13.2-8.1c-3.3-2-7.1-3.1-10.9-3.1c-1.1,0-2.2,0.1-3.2,0.3
			l-15.3,2.4c-3.2,0.5-6.4-0.8-8.3-3.4l-9.1-12.5c-2.9-4-7.2-6.8-12-8l-15-3.6c-3.2-0.8-5.6-3.2-6.3-6.3l-3.6-15
			c-1.2-4.8-4-9.1-8-12l-12.5-9.1c-2.6-1.9-3.9-5.1-3.4-8.3l2.4-15.3c0.8-4.9-0.2-9.9-2.8-14.1l-8.1-13.2c-1.7-2.8-1.7-6.2,0-9
			l8.1-13.2c2.6-4.2,3.6-9.2,2.8-14.1l-2.4-15.3c-0.5-3.2,0.8-6.4,3.4-8.3l12.5-9.1c4-2.9,6.8-7.2,8-12l3.6-15
			c0.8-3.2,3.2-5.6,6.3-6.3l15-3.6c4.8-1.2,9.1-4,12-8l9.1-12.5c1.9-2.6,5.1-4,8.3-3.4l15.3,2.4c4.9,0.8,9.9-0.2,14.1-2.8l13.2-8.1
			c2.8-1.7,6.2-1.7,9,0l13.2,8.1c4.2,2.6,9.2,3.6,14.1,2.8l15.3-2.4c3.2-0.5,6.4,0.8,8.3,3.4l9.1,12.5c2.9,4,7.2,6.8,12,8l15,3.6
			c3.2,0.8,5.6,3.2,6.3,6.3l3.6,15c1.2,4.8,4,9.1,8,12l12.5,9.1c2.6,1.9,3.9,5.1,3.4,8.3l-2.4,15.3c-0.8,4.9,0.2,9.9,2.8,14.1
			l8.1,13.2C391.6,254.3,391.6,257.7,389.9,260.5z"/>
		<path class="st0" d="M311.8,176.3c25.1,17.6,41.6,46.7,41.6,79.7s-16.5,62-41.6,79.7"/>
		<circle class="st0" cx="256" cy="256" r="79.7"/>
		<path class="st0" d="M200.2,335.7c-25.1-17.6-41.6-46.7-41.6-79.7s16.5-62,41.6-79.7"/>
		<g>
			<line class="st0" x1="256" y1="203" x2="256" y2="216.4"/>
			<line class="st0" x1="256" y1="295.1" x2="256" y2="308.3"/>
			<path class="st0" d="M285.5,227.6c-18.7-12.4-56.2-11.2-57.6,8.2c-0.8,10.7,9.6,18.1,29,18.1c21.2,0,30.1,9.2,30.1,20.2
				c0,15.9-35.1,26.2-62.1,8.2"/>
		</g>
	</g>
</g>
<g id="Guide" class="st1">
	<rect x="105.2" y="105.2" class="st2" width="301.7" height="301.7"/>
</g>
</svg>
