<?xml version="1.0" encoding="utf-8"?>
<!-- Generator: Adobe Illustrator 22.0.0, SVG Export Plug-In . SVG Version: 6.00 Build 0)  -->
<svg version="1.1" id="Layer_1" xmlns="http://www.w3.org/2000/svg" xmlns:xlink="http://www.w3.org/1999/xlink" x="0px" y="0px"
	 viewBox="0 0 512 512" style="enable-background:new 0 0 512 512;" xml:space="preserve">
<style type="text/css">
	.st0{display:none;}
	.st1{display:inline;fill:none;stroke:#FF0000;stroke-width:2;stroke-miterlimit:10;}
</style>
<g id="Icon">
	<g>
		<g>
			<path d="M256.1,393.1c-1.9,0-3.8-0.5-5.5-1.6l-13.2-8.1c-3-1.8-6.4-2.8-9.9-2.8c-1,0-2,0.1-2.8,0.3l-15.4,2.4
				c-4,0.6-7.9-1-10.2-4.2l-9.1-12.5c-2.6-3.6-6.4-6.1-10.9-7.2l-15-3.6c-3.9-1-6.9-4-7.8-7.8l-3.6-15c-1.1-4.4-3.7-8.3-7.2-10.8
				L133,313c-3.2-2.3-4.8-6.3-4.2-10.2l2.4-15.3c0.7-4.4-0.2-8.9-2.5-12.7l-8.1-13.2c-2.1-3.4-2.1-7.7,0-11.1l8.1-13.2
				c2.4-3.8,3.3-8.3,2.5-12.7l-2.4-15.3c-0.6-4,1-7.9,4.2-10.2l12.5-9.1c3.6-2.6,6.1-6.4,7.2-10.9l3.6-15c1-3.9,4-6.9,7.8-7.8
				l15-3.6c4.4-1.1,8.3-3.7,10.8-7.2l9.1-12.5c2.4-3.3,6.4-4.9,10.3-4.2l15.2,2.4c4.4,0.7,8.9-0.2,12.7-2.5l13.2-8.1
				c3.4-2.1,7.7-2.1,11.1,0l13.2,8.1c3.8,2.4,8.3,3.2,12.7,2.5l15.3-2.4c4-0.6,7.9,1,10.2,4.2l9.1,12.5c2.6,3.6,6.4,6.1,10.9,7.2
				l15,3.6c3.9,1,6.9,4,7.8,7.8l3.6,15c1.1,4.4,3.7,8.3,7.2,10.8l12.5,9.1c3.2,2.3,4.8,6.3,4.2,10.2l-2.4,15.3
				c-0.7,4.4,0.2,8.9,2.5,12.7l8.1,13.2c2.1,3.4,2.1,7.7,0,11.1l0,0l-8.1,13.2c-2.4,3.8-3.3,8.3-2.5,12.7l2.4,15.3
				c0.6,4-1,7.9-4.2,10.2l-12.5,9.1c-3.6,2.6-6.1,6.4-7.2,10.9l-3.6,15c-1,3.9-4,6.9-7.8,7.8l-15,3.6c-4.4,1.1-8.3,3.7-10.8,7.2
				l-9.1,12.5c-2.3,3.2-6.3,4.8-10.2,4.2l-15.3-2.4c-4.4-0.7-8.9,0.2-12.7,2.5l-13.2,8.1C259.9,392.5,258,393.1,256.1,393.1z
				 M227.5,376.6c4.1,0,8.3,1.2,11.9,3.4l13.2,8.1c2.2,1.3,4.7,1.3,6.9,0l13.2-8.1c4.6-2.9,10.1-3.9,15.5-3.1l15.3,2.4
				c2.5,0.4,4.9-0.6,6.4-2.6l9.1-12.5c3.1-4.3,7.8-7.4,13.1-8.8l15-3.6c2.4-0.5,4.2-2.4,4.8-4.8l3.6-15c1.3-5.4,4.5-10,8.8-13.2
				l12.5-9.1c2-1.5,3-3.9,2.6-6.4l-2.4-15.3c-0.9-5.3,0.2-10.8,3.1-15.5l8.1-13.2c1.3-2.2,1.3-4.8,0-6.9l-8.1-13.2
				c-2.9-4.6-3.9-10.1-3.1-15.5l2.4-15.3c0.4-2.5-0.6-4.9-2.6-6.4l-12.5-9.1c-4.3-3.1-7.4-7.8-8.8-13.1l-3.6-15
				c-0.5-2.4-2.4-4.2-4.8-4.8l-15-3.6c-5.4-1.3-10-4.5-13.2-8.8l-9.1-12.5c-1.5-2-3.9-3-6.4-2.6l-15.3,2.4
				c-5.3,0.9-10.8-0.2-15.5-3.1l-13.2-8.1c-2.2-1.3-4.7-1.3-6.9,0l-13.2,8.1c-4.6,2.9-10.1,3.9-15.5,3.1l-15.3-2.4
				c-2.4-0.5-4.9,0.6-6.4,2.6l-9.1,12.5c-3.1,4.3-7.8,7.4-13.1,8.8l-15,3.6c-2.4,0.5-4.2,2.4-4.8,4.8l-3.6,15
				c-1.3,5.4-4.5,10-8.8,13.2l-12.5,9.1c-2,1.5-3,3.9-2.6,6.4l2.4,15.3c0.9,5.4-0.2,10.8-3.1,15.5l-8.1,13.2c-1.3,2.2-1.3,4.7,0,6.9
				l8.1,13.2c2.9,4.6,3.9,10.1,3.1,15.5l-2.4,15.3c-0.4,2.5,0.6,4.9,2.6,6.4l12.5,9.1c4.3,3.1,7.4,7.8,8.8,13.1l3.6,15
				c0.5,2.4,2.4,4.2,4.8,4.8l15,3.6c5.4,1.3,10,4.5,13.2,8.8l9.1,12.5c1.5,2,3.9,3,6.4,2.6l15.3-2.4
				C225,376.7,226.3,376.6,227.5,376.6z"/>
		</g>
		<g>
			<path d="M313,337.3l-2.3-3.3c25.5-18,40.8-47.2,40.8-78.1c0-31-15.2-60.2-40.7-78.1l2.3-3.3c26.6,18.6,42.5,49,42.5,81.3
				C355.4,288.2,339.5,318.6,313,337.3z"/>
		</g>
		<g>
			<path d="M256,337.7c-45,0-81.7-36.7-81.7-81.7s36.7-81.7,81.7-81.7s81.7,36.7,81.7,81.7S301,337.7,256,337.7z M256,178.3
				c-42.8,0-77.7,34.9-77.7,77.7c0,42.8,34.9,77.7,77.7,77.7c42.8,0,77.7-34.9,77.7-77.7C333.7,213.2,298.8,178.3,256,178.3z"/>
		</g>
		<g>
			<path d="M199.1,337.3c-26.6-18.6-42.5-49-42.5-81.3c0-32.2,15.9-62.6,42.4-81.3l2.3,3.3c-25.5,18-40.8,47.2-40.8,78.1
				c0,31,15.2,60.2,40.7,78.1L199.1,337.3z"/>
		</g>
		<g>
			<g>
				<rect x="254" y="203" width="4" height="13.4"/>
			</g>
			<g>
				<rect x="254" y="295.1" width="4" height="13.2"/>
			</g>
			<g>
				<path d="M256.4,293.8c-10.6,0-22.3-2.9-32.6-9.8l2.2-3.3c17.3,11.5,38.4,11.1,50.3,4.7c5.6-3,8.7-7,8.7-11.2
					c0-11.4-10.5-18.2-28.1-18.2c-12.5,0-21.8-2.9-26.9-8.5c-3-3.2-4.4-7.3-4.1-11.8c0.4-6.2,4.1-11.1,10.6-14.3
					c13.4-6.6,36.4-4.5,50.1,4.6l-2.2,3.3c-12.5-8.3-34-10.3-46.1-4.3c-5.2,2.6-8.1,6.3-8.4,11c-0.3,3.4,0.8,6.3,3,8.8
					c4.3,4.6,12.8,7.2,24,7.2c20.1,0,32.1,8.3,32.1,22.2c0,5.8-3.8,11-10.8,14.8C272.5,291.9,264.8,293.8,256.4,293.8z"/>
			</g>
		</g>
	</g>
</g>
<g id="Guide" class="st0">
	<rect x="105.2" y="105.2" class="st1" width="301.7" height="301.7"/>
</g>
</svg>
