<?xml version="1.0" encoding="utf-8"?>
<!-- Generator: Adobe Illustrator 25.1.0, SVG Export Plug-In . SVG Version: 6.00 Build 0)  -->
<svg version="1.1" xmlns="http://www.w3.org/2000/svg" xmlns:xlink="http://www.w3.org/1999/xlink" x="0px" y="0px"
	 viewBox="0 0 512 512" style="enable-background:new 0 0 512 512;" xml:space="preserve">
<style type="text/css">
	.st0{fill:none;stroke:#000000;stroke-width:4;stroke-miterlimit:10;}
	.st1{display:none;}
	.st2{display:inline;fill:none;stroke:#FF0000;stroke-width:2;stroke-miterlimit:10;}
</style>
<g id="Icon">
	<g>
		<line class="st0" x1="296.4" y1="322.5" x2="307.2" y2="346.5"/>
		<line class="st0" x1="215.6" y1="321.7" x2="204.9" y2="345.6"/>
		<polyline class="st0" points="298.7,213.3 272.3,232.5 282.4,263.6 256,244.4 229.6,263.6 239.7,232.5 213.3,213.3 245.9,213.3 
			254.5,187.3 265.1,214.2 		"/>
		<g>
			<path class="st0" d="M311.8,307.4l30,66.9l-21-2.5c-1.7-0.2-3.5,0.6-4.5,2l-12.1,17.3l-30.5-68"/>
			<path class="st0" d="M238.1,323.2l-30.5,68l-12.1-17.3c-1-1.4-2.7-2.2-4.5-2l-21,2.5l30-66.9"/>
		</g>
		<path class="st0" d="M359.6,228.9l-6.2,10.2c-2,3.3-2.8,7.1-2.2,10.9l1.9,11.8c0.4,2.5-0.6,4.9-2.7,6.4l-9.7,7
			c-3.1,2.3-5.3,5.5-6.2,9.3l-2.8,11.6c-0.6,2.4-2.5,4.3-4.9,4.9l-11.6,2.8c-3.7,0.9-7,3.1-9.3,6.2l-7,9.7c-1.5,2-3.9,3.1-6.4,2.7
			l-11.8-1.9c-3.8-0.6-7.7,0.2-10.9,2.2l-10.2,6.2c-2.1,1.3-4.8,1.3-6.9,0l-10.2-6.2c-2.5-1.6-5.5-2.4-8.4-2.4
			c-0.8,0-1.7,0.1-2.5,0.2l-11.8,1.9c-2.5,0.4-4.9-0.6-6.4-2.7l-7-9.7c-2.3-3.1-5.5-5.3-9.3-6.2l-11.6-2.8c-2.4-0.6-4.3-2.5-4.9-4.9
			l-2.8-11.6c-0.9-3.7-3.1-7-6.2-9.3l-9.7-7c-2-1.5-3.1-3.9-2.7-6.4l1.9-11.8c0.6-3.8-0.2-7.7-2.2-10.9l-6.2-10.2
			c-1.3-2.1-1.3-4.8,0-6.9l6.2-10.2c2-3.3,2.8-7.1,2.2-10.9l-1.9-11.8c-0.4-2.5,0.6-4.9,2.7-6.4l9.7-7c3.1-2.3,5.3-5.5,6.2-9.3
			l2.8-11.6c0.6-2.4,2.5-4.3,4.9-4.9l11.6-2.8c3.7-0.9,7-3.1,9.3-6.2l7-9.7c1.5-2,3.9-3.1,6.4-2.7l11.8,1.9
			c3.8,0.6,7.7-0.2,10.9-2.2l10.2-6.2c2.1-1.3,4.8-1.3,6.9,0l10.2,6.2c3.3,2,7.1,2.8,10.9,2.2l11.8-1.9c2.5-0.4,4.9,0.6,6.4,2.7
			l7,9.7c2.3,3.1,5.5,5.3,9.3,6.2l11.6,2.8c2.4,0.6,4.3,2.5,4.9,4.9l2.8,11.6c0.9,3.7,3.1,7,6.2,9.3l9.7,7c2,1.5,3.1,3.9,2.7,6.4
			l-1.9,11.8c-0.6,3.8,0.2,7.7,2.2,10.9l6.2,10.2C360.9,224.1,360.9,226.8,359.6,228.9z"/>
		<g>
			<g>
				<g>
					<path class="st0" d="M290.5,157.1c-29.6-14.9-65.2-9.2-88.6,14.2c-27.2,27.2-30,70.7-6.3,101.1"/>
				</g>
			</g>
			<g>
				<g>
					<path class="st0" d="M209,285.9c13.8,10.8,30.4,16.1,46.9,16.1c19.7,0,39.4-7.6,54.2-22.4c23.4-23.4,29.2-59.1,14.2-88.6"/>
				</g>
			</g>
		</g>
		<g>
			<g>
				<g>
					<path class="st0" d="M314.5,176.1c-0.9-1.1-1.9-2.2-2.9-3.2c-2.6-2.8-5.5-5.4-8.6-7.8"/>
				</g>
			</g>
		</g>
	</g>
</g>
<g id="Guide" class="st1">
	<rect x="105.2" y="105.2" class="st2" width="301.7" height="301.7"/>
</g>
</svg>
