<?xml version="1.0" encoding="utf-8"?>
<!-- Generator: Adobe Illustrator 22.0.0, SVG Export Plug-In . SVG Version: 6.00 Build 0)  -->
<svg version="1.1" id="Layer_1" xmlns="http://www.w3.org/2000/svg" xmlns:xlink="http://www.w3.org/1999/xlink" x="0px" y="0px"
	 viewBox="0 0 512 512" style="enable-background:new 0 0 512 512;" xml:space="preserve">
<style type="text/css">
	.st0{display:none;}
	.st1{display:inline;fill:none;stroke:#FF0000;stroke-width:2;stroke-miterlimit:10;}
</style>
<g id="Icon">
	<g>
		<g>
			<rect x="299.8" y="321.3" transform="matrix(0.9119 -0.4104 0.4104 0.9119 -110.6836 153.3076)" width="4" height="26.3"/>
		</g>
		<g>
			<rect x="197.2" y="331.7" transform="matrix(0.4087 -0.9127 0.9127 0.4087 -180.1922 389.1675)" width="26.2" height="4"/>
		</g>
		<g>
			<polygon points="286.2,268.8 256,246.9 225.8,268.8 237.3,233.3 207.1,211.3 244.5,211.3 254.3,181.4 267,213.5 263.2,214.9 
				254.7,193.2 247.3,215.3 219.5,215.3 242.1,231.7 233.4,258.4 256,241.9 278.6,258.4 269.9,231.7 297.5,211.7 299.9,214.9 
				274.7,233.3 			"/>
		</g>
		<g>
			<g>
				<path d="M303.8,395.1l-31.9-71.2l3.7-1.6l29.1,64.8l10.1-14.4c1.4-2,3.9-3.1,6.4-2.8l17.5,2.1L310,308.2l3.7-1.6l31.4,70.1
					l-24.5-2.9c-1-0.1-2.1,0.4-2.6,1.2L303.8,395.1z"/>
			</g>
			<g>
				<path d="M208,395.2L193.9,375c-0.6-0.8-1.6-1.3-2.6-1.2l-24.5,2.9l31.4-70.1l3.6,1.6L173.3,372l17.5-2.1
					c2.5-0.3,4.9,0.8,6.4,2.8l10.1,14.4l29.1-64.8l3.6,1.6L208,395.2z"/>
			</g>
		</g>
		<g>
			<path d="M256.2,331.9c-1.6,0-3.1-0.4-4.5-1.3l-10.2-6.2c-2.1-1.4-4.7-2.1-7.4-2.1c-0.7,0-1.5,0.1-2.3,0.2l-11.7,1.9
				c-3.3,0.5-6.4-0.8-8.3-3.5l-7-9.7c-2.1-2.8-4.9-4.7-8.1-5.4l-11.6-2.8c-3.2-0.8-5.6-3.2-6.4-6.4l-2.8-11.6
				c-0.8-3.2-2.7-6.1-5.4-8.2l-9.7-7c-2.7-2-4-5.2-3.5-8.3l1.9-11.8c0.5-3.3-0.2-6.7-1.9-9.5l-6.2-10.2c-1.7-2.7-1.7-6.3,0-9
				l6.2-10.2c1.8-2.9,2.5-6.2,1.9-9.5l-1.9-11.8c-0.5-3.3,0.8-6.4,3.5-8.3l9.7-7c2.8-2.1,4.7-4.9,5.4-8.1l2.8-11.6
				c0.8-3.2,3.2-5.6,6.4-6.4l11.6-2.8c3.2-0.8,6.1-2.7,8.2-5.4l7-9.7c2-2.7,5.2-4,8.3-3.5l11.8,1.9c3.3,0.5,6.7-0.2,9.5-1.9
				l10.2-6.2c2.7-1.7,6.3-1.7,9,0l10.2,6.2c2.9,1.8,6.2,2.5,9.5,1.9l11.8-1.9c3.3-0.5,6.4,0.8,8.3,3.5l7,9.7
				c2.1,2.8,4.9,4.7,8.1,5.4l11.6,2.8c3.2,0.8,5.6,3.2,6.4,6.4l2.8,11.6c0.8,3.2,2.7,6.1,5.4,8.2l9.7,7c2.7,2,4,5.2,3.5,8.3
				l-1.9,11.8c-0.5,3.3,0.2,6.7,1.9,9.5l6.2,10.2c1.7,2.7,1.7,6.2,0,9l-6.2,10.2c-1.8,2.9-2.5,6.3-1.9,9.5l1.9,11.8
				c0.5,3.3-0.8,6.4-3.5,8.3l-9.7,7c-2.8,2.1-4.7,4.9-5.4,8.1l-2.8,11.6c-0.8,3.2-3.2,5.6-6.4,6.4l-11.6,2.8
				c-3.2,0.8-6.1,2.7-8.2,5.4l-7,9.7c-2,2.7-5.2,4-8.3,3.5l-11.8-1.9c-3.3-0.5-6.7,0.2-9.5,1.9l-10.2,6.2
				C259.3,331.5,257.7,331.9,256.2,331.9z M234.1,318.3c3.4,0,6.7,1,9.5,2.7l10.2,6.2c1.5,0.9,3.4,0.9,4.8,0l10.2-6.2
				c3.6-2.3,8-3.1,12.3-2.5l11.8,1.9c1.7,0.3,3.4-0.4,4.5-1.9l7-9.7c2.6-3.5,6.3-6,10.4-7l11.6-2.8c1.7-0.4,3-1.8,3.4-3.4l2.8-11.6
				c1-4.2,3.4-7.8,7-10.4l9.7-7c1.5-1.1,2.2-2.7,1.9-4.5l-1.9-11.8c-0.7-4.3,0.2-8.5,2.5-12.3l6.2-10.2c0.9-1.5,0.9-3.3,0-4.8
				l-6.2-10.2c-2.3-3.6-3.1-8-2.5-12.3l1.9-11.8c0.3-1.7-0.4-3.4-1.9-4.5l-9.7-7c-3.5-2.6-6-6.3-7-10.4l-2.8-11.6
				c-0.4-1.7-1.8-3-3.4-3.4l-11.6-2.8c-4.2-1-7.8-3.4-10.4-7l-7-9.7c-1.1-1.5-2.7-2.2-4.5-1.9l-11.8,1.9c-4.3,0.7-8.5-0.2-12.3-2.5
				l-10.2-6.2c-1.5-0.9-3.4-0.9-4.8,0l-10.2,6.2c-3.6,2.3-8,3.1-12.3,2.5l-11.8-1.9c-1.7-0.3-3.4,0.4-4.5,1.9l-7,9.7
				c-2.6,3.5-6.3,6-10.4,7l-11.6,2.8c-1.7,0.4-3,1.8-3.4,3.4l-2.8,11.6c-1,4.2-3.4,7.8-7,10.4l-9.7,7c-1.5,1.1-2.2,2.7-1.9,4.5
				l1.9,11.8c0.7,4.3-0.2,8.5-2.5,12.3l-6.2,10.2c-0.9,1.5-0.9,3.4,0,4.8l6.2,10.2c2.3,3.6,3.1,8,2.5,12.3l-1.9,11.8
				c-0.3,1.7,0.4,3.4,1.9,4.5l9.7,7c3.5,2.6,6,6.3,7,10.4l2.8,11.6c0.4,1.7,1.8,3,3.4,3.4l11.6,2.8c4.2,1,7.8,3.4,10.4,7l7,9.7
				c1.1,1.5,2.7,2.2,4.5,1.9l11.8-1.9C232.3,318.4,233.2,318.3,234.1,318.3z"/>
		</g>
		<g>
			<g>
				<g>
					<g>
						<path d="M194,273.6c-24.3-31.2-21.5-75.8,6.5-103.7c24-24,60.5-29.9,90.9-14.6l-1.8,3.6c-28.8-14.5-63.5-9-86.3,13.8
							c-26.6,26.6-29.2,68.9-6.1,98.5L194,273.6z"/>
					</g>
				</g>
			</g>
			<g>
				<g>
					<g>
						<path d="M255.9,304c-17.4,0-34.5-5.9-48.1-16.5l2.5-3.2c12.9,10.1,29.1,15.7,45.7,15.7c20,0,38.7-7.7,52.8-21.8
							c22.9-22.9,28.4-57.6,13.8-86.3l3.6-1.8c15.4,30.3,9.5,66.8-14.6,90.9C296.7,295.8,276.9,304,255.9,304z"/>
					</g>
				</g>
			</g>
		</g>
		<g>
			<g>
				<g>
					<g>
						<path d="M313,177.4c-0.8-1-1.8-2.1-2.8-3.1c-2.5-2.7-5.3-5.2-8.4-7.6l2.4-3.2c3.3,2.5,6.3,5.2,8.8,8c1,1,2.1,2.2,3,3.3
							L313,177.4z"/>
					</g>
				</g>
			</g>
		</g>
	</g>
</g>
<g id="Guide" class="st0">
	<rect x="105.2" y="105.2" class="st1" width="301.7" height="301.7"/>
</g>
</svg>
