<?xml version="1.0" encoding="utf-8"?>
<!-- Generator: Adobe Illustrator 25.0.1, SVG Export Plug-In . SVG Version: 6.00 Build 0)  -->
<svg version="1.1" id="Layer_1" xmlns="http://www.w3.org/2000/svg" xmlns:xlink="http://www.w3.org/1999/xlink" x="0px" y="0px"
	 viewBox="0 0 512 512" style="enable-background:new 0 0 512 512;" xml:space="preserve">
<style type="text/css">
	.st0{fill:#333333;}
</style>
<g>
	<g>
		<g>
			<path class="st0" d="M294.5,142.7c-33.2-16.8-73.2-10.4-99.5,16c-30.6,30.6-33.6,79.3-7.1,113.4c0.9,1.2,2.3,1.8,3.8,1.8
				c1,0,2-0.3,2.9-1c2.1-1.6,2.4-4.6,0.8-6.7c-23.6-30.3-20.9-73.7,6.3-100.8c23.4-23.4,58.9-29.1,88.5-14.2
				c2.3,1.2,5.2,0.2,6.4-2.1C297.8,146.8,296.9,143.9,294.5,142.7z"/>
		</g>
	</g>
	<g>
		<g>
			<path class="st0" d="M332.5,180.7c-1.2-2.3-4-3.3-6.4-2.1c-2.3,1.2-3.3,4-2.1,6.4c14.9,29.5,9.2,65-14.2,88.4
				c-27.2,27.2-70.5,29.9-100.8,6.3c-2.1-1.6-5.1-1.2-6.7,0.8c-1.6,2.1-1.2,5.1,0.8,6.7c15.5,12.1,34.1,18,52.6,18
				c22.1,0,44.2-8.5,60.8-25.1C342.8,253.9,349.2,213.9,332.5,180.7z"/>
		</g>
	</g>
	<g>
		<g>
			<path class="st0" d="M320.2,162.6c-1.2-1.3-2.4-2.6-3.7-3.9c-1.3-1.3-2.6-2.5-3.9-3.7c-2-1.7-5-1.6-6.7,0.4c-1.7,2-1.6,5,0.4,6.7
				c1.2,1,2.4,2.2,3.5,3.3c1.1,1.1,2.2,2.3,3.3,3.5c0.9,1.1,2.2,1.6,3.6,1.6c1.1,0,2.2-0.4,3.1-1.2
				C321.7,167.6,321.9,164.6,320.2,162.6z"/>
		</g>
	</g>
	<g>
		<g>
			<path class="st0" d="M368,228c3.2-5.2,3.2-11.7,0-16.9l-6.3-10.3c-0.8-1.4-1.1-3-0.9-4.5l1.9-11.8c1-6-1.5-12-6.5-15.6l-9.7-7.1
				c-1.3-0.9-2.2-2.3-2.6-3.8l-2.8-11.7c-1.4-5.9-6-10.5-11.9-11.9l-11.7-2.8c-1.5-0.4-2.9-1.3-3.8-2.6l-7.1-9.7
				c-3.6-4.9-9.6-7.4-15.6-6.5l-11.8,1.9c-1.6,0.2-3.2-0.1-4.5-0.9l-10.3-6.3c-5.2-3.2-11.7-3.2-16.9,0l-10.3,6.3
				c-1.4,0.8-3,1.1-4.5,0.9l-11.8-1.9c-6-0.9-12,1.5-15.6,6.5l-7.1,9.7c-0.9,1.3-2.3,2.2-3.8,2.6l-11.7,2.8
				c-5.9,1.4-10.5,6-11.9,11.9L168,158c-0.4,1.5-1.3,2.9-2.6,3.8l-9.7,7.1c-4.9,3.6-7.4,9.6-6.5,15.6l1.9,11.8
				c0.2,1.6-0.1,3.2-0.9,4.5l-6.3,10.3c-3.2,5.2-3.2,11.7,0,16.9l6.3,10.3c0.8,1.4,1.1,3,0.9,4.5l-1.9,11.8c-1,6,1.5,12,6.5,15.6
				l9.7,7.1c1.3,0.9,2.2,2.3,2.6,3.8l2.8,11.7c1.4,5.9,6,10.5,11.9,11.9l4.9,1.2l-33,73.5c-0.7,1.6-0.5,3.4,0.5,4.8
				c1,1.4,2.7,2.1,4.4,1.9l26.5-3.2l15.3,21.9c0.9,1.3,2.4,2,3.9,2c0.1,0,0.3,0,0.4,0c1.7-0.2,3.2-1.2,3.9-2.8l33.7-75.1l4.3,2.6
				c2.6,1.6,5.5,2.4,8.4,2.4c2.9,0,5.8-0.8,8.4-2.4l4.4-2.7l33.7,75.2c0.7,1.6,2.2,2.6,3.9,2.8c0.1,0,0.3,0,0.4,0c1.5,0,3-0.8,3.9-2
				l15.3-21.9l26.5,3.2c1.7,0.2,3.4-0.5,4.4-1.9c1-1.4,1.2-3.2,0.5-4.8l-33-73.6l4.7-1.1c5.9-1.4,10.5-6,11.9-11.9l2.8-11.7
				c0.4-1.5,1.3-2.9,2.6-3.8l9.7-7.1c4.9-3.6,7.4-9.6,6.5-15.6l-1.9-11.8c-0.2-1.6,0.1-3.2,0.9-4.5L368,228z M204.4,392.5
				l-12.1-17.4c-1-1.4-2.7-2.2-4.5-2l-21,2.5l30-67c0.5,0.4,1,0.9,1.4,1.4l7.1,9.7c0.7,0.9,1.4,1.8,2.2,2.5l-15.8,35.3
				c-1.1,2.4,0,5.2,2.4,6.3c0.6,0.3,1.3,0.4,1.9,0.4c1.8,0,3.6-1,4.3-2.8l15.8-35.1c1.6,0.2,3.1,0.2,4.7,0l11.8-1.9
				c0.7-0.1,1.4-0.1,2.1,0L204.4,392.5z M345.4,375.6l-21-2.5c-1.7-0.2-3.5,0.6-4.5,2l-12.1,17.4l-30.5-68.1c0.6-0.1,1.3-0.1,1.9,0
				l11.8,1.9c1.7,0.3,3.3,0.3,4.9,0l15.8,35.2c0.8,1.8,2.5,2.8,4.3,2.8c0.6,0,1.3-0.1,1.9-0.4c2.4-1.1,3.5-3.9,2.4-6.3l-15.9-35.4
				c0.8-0.7,1.5-1.5,2.1-2.4l7.1-9.7c0.4-0.6,1-1.1,1.6-1.6L345.4,375.6z M359.9,223l-6.3,10.3c-2,3.3-2.8,7.2-2.2,10.9l1.9,11.8
				c0.4,2.5-0.6,5-2.7,6.4l-9.7,7.1c-3.1,2.3-5.3,5.6-6.2,9.3l-2.8,11.7c-0.6,2.4-2.5,4.3-4.9,4.9l-11.7,2.8c-3.7,0.9-7,3.1-9.3,6.2
				l-7.1,9.7c-1.5,2-4,3.1-6.4,2.7l-11.8-1.9c-3.8-0.6-7.7,0.2-10.9,2.2l-10.3,6.3c-2.1,1.3-4.8,1.3-7,0l-10.3-6.3
				c-2.6-1.6-5.5-2.4-8.4-2.4c-0.8,0-1.7,0.1-2.5,0.2l-11.8,1.9c-2.5,0.4-5-0.6-6.4-2.7l-7.1-9.7c-2.3-3.1-5.6-5.3-9.3-6.2
				l-11.7-2.8c-2.4-0.6-4.3-2.5-4.9-4.9l-2.8-11.7c-0.9-3.7-3.1-7-6.2-9.3l-9.7-7.1c-2-1.5-3.1-4-2.7-6.4l1.9-11.8
				c0.6-3.8-0.2-7.7-2.2-10.9l-6.3-10.3c-1.3-2.1-1.3-4.8,0-7l6.3-10.3c2-3.3,2.8-7.2,2.2-10.9l-1.9-11.8c-0.4-2.5,0.6-5,2.7-6.4
				l9.7-7.1c3.1-2.3,5.3-5.6,6.2-9.3l2.8-11.7c0.6-2.4,2.5-4.3,4.9-4.9l11.7-2.8c3.7-0.9,7-3.1,9.3-6.2l7.1-9.7c1.5-2,4-3.1,6.4-2.7
				l11.8,1.9c3.8,0.6,7.7-0.2,10.9-2.2l10.3-6.3c2.1-1.3,4.8-1.3,7,0l10.3,6.3c3.3,2,7.2,2.8,10.9,2.2l11.8-1.9
				c2.5-0.4,5,0.6,6.4,2.7l7.1,9.7c2.3,3.1,5.6,5.3,9.3,6.2l11.7,2.8c2.4,0.6,4.3,2.5,4.9,4.9l2.8,11.7c0.9,3.7,3.1,7,6.2,9.3
				l9.7,7.1c2,1.5,3.1,4,2.7,6.4l-1.9,11.8c-0.6,3.8,0.2,7.7,2.2,10.9l6.3,10.3C361.2,218.2,361.2,220.9,359.9,223z"/>
		</g>
	</g>
	<g>
		<g>
			<path class="st0" d="M311.6,204.7c-1-3.2-3.8-5.5-7.2-5.9l-28.6-3.4l-12.1-26.2c-1.4-3.1-4.4-5-7.8-5c-3.4,0-6.4,1.9-7.8,5
				l-12.1,26.2l-28.6,3.4c-3.4,0.4-6.1,2.7-7.2,5.9c-1,3.2-0.2,6.7,2.3,9l21.2,19.6l-5.6,28.3c-0.7,3.3,0.6,6.6,3.4,8.6
				c1.5,1.1,3.3,1.7,5,1.7c1.4,0,2.9-0.4,4.2-1.1l25.1-14.1l25.1,14.1c3,1.7,6.5,1.4,9.2-0.5c2.7-2,4-5.3,3.4-8.6l-5.6-28.3
				l21.2-19.6C311.8,211.4,312.7,208,311.6,204.7z M279.7,228.1c-1.2,1.1-1.8,2.8-1.4,4.4l5.7,28.9L258.3,247
				c-0.7-0.4-1.5-0.6-2.3-0.6s-1.6,0.2-2.3,0.6L228,261.4l5.7-28.9c0.3-1.6-0.2-3.3-1.4-4.4l-21.6-20l29.3-3.5
				c1.6-0.2,3.1-1.2,3.8-2.7l12.3-26.8l12.3,26.8c0.7,1.5,2.1,2.5,3.8,2.7l29.3,3.5L279.7,228.1z"/>
		</g>
	</g>
</g>
</svg>
