<?xml version="1.0" encoding="utf-8"?>
<svg width="25px" height="22px" viewbox="0 0 25 22" version="1.1" xmlns:xlink="http://www.w3.org/1999/xlink" xmlns="http://www.w3.org/2000/svg">
  <g id="Group">
    <path d="M0.440681 0.440681C0.722094 0.158556 1.1042 0 1.50268 0C1.90116 0 2.28327 0.158556 2.56468 0.440681L11.5647 9.44068C11.8468 9.72209 12.0054 10.1042 12.0054 10.5027C12.0054 10.9012 11.8468 11.2833 11.5647 11.5647L2.56468 20.5647C1.97816 21.1512 1.02721 21.1512 0.440681 20.5647C-0.145845 19.9782 -0.145845 19.0272 0.440681 18.4407L8.38168 10.5027L0.440681 2.56468C0.158556 2.28327 0 1.90116 0 1.50268C0 1.1042 0.158556 0.722094 0.440681 0.440681Z" transform="translate(11.997314 0)" id="Path" fill="#000000" stroke="none" />
    <path d="M0 1.5C0 0.671573 0.671573 0 1.5 0L21 0C21.8284 0 22.5 0.671573 22.5 1.5C22.5 2.32843 21.8284 3 21 3L1.5 3C0.671573 3 0 2.32843 0 1.5Z" transform="translate(0 9.002686)" id="Path" fill="#000000" stroke="none" />
  </g>
</svg>