<?xml version="1.0" encoding="utf-8"?>
<!-- Generator: Adobe Illustrator 22.0.0, SVG Export Plug-In . SVG Version: 6.00 Build 0)  -->
<svg version="1.1" id="Layer_1" xmlns="http://www.w3.org/2000/svg" xmlns:xlink="http://www.w3.org/1999/xlink" x="0px" y="0px"
	 viewBox="0 0 512 512" style="enable-background:new 0 0 512 512;" xml:space="preserve">
<style type="text/css">
	.st0{display:none;}
	.st1{display:inline;fill:none;stroke:#FF0000;stroke-width:2;stroke-miterlimit:10;}
</style>
<g id="Icon">
	<g>
		<g>
			<g>
				<path d="M277.1,393.4c-5.7,0-11.2-1.5-17.4-3.3l-1.2-0.3c-2.3-0.7-4.3-1.3-6.4-1.8l-51.9-13.9c-0.6-0.1-1-0.2-1.4-0.3
					c-0.1,0-0.2-0.1-0.3-0.1c-1-0.2-1-0.2-1.7-0.2h-9.9c-2.5,5.5-7.9,9.1-14.1,9.1h-20.1c-8.4,0-15.3-6.9-15.3-15.3v-52.7
					c0-8.4,6.9-15.3,15.3-15.3h20.1c6.1,0,11.6,3.6,14.1,9.1h4.8c3.1-0.1,3.1-0.1,6.1-1.3c21.9-8.7,41.2-10.1,64.1,11.5l0.2,0.2
					c0.3,0.2,0.5,0.5,0.8,0.7c0.1,0.1,0.1,0.1,0.2,0.2c0.2,0,0.6,0,1.1,0h27.3c5.1,0,9.9,1.9,13.7,5.3l38.6-19.8
					c10-5.1,21.7-2.1,27.2,6.8c5.7,9.1,3,20.9-6.1,27.4L300.7,385C292,390.8,284.7,393.4,277.1,393.4z M184.1,369.4h12.7
					c1.2,0,1.4,0,2.7,0.4c0.1,0,0.3,0.1,0.5,0.1c0.3,0.1,0.6,0.2,0.9,0.2l0.2,0l52,13.9c2.1,0.5,4.1,1.1,6.5,1.8l1.2,0.3
					c6,1.7,11.2,3.2,16.3,3.2c6.7,0,13.2-2.4,21.2-7.7l0.2-0.2l9.9-7.1l54.1-38.6c7.4-5.3,9.6-14.7,5.1-22c-4.4-7.2-13.9-9.5-22-5.4
					l-41.2,21.2l-1-1.1c-3.2-3.3-7.4-5.1-11.9-5.1h-27.3c-1.1,0-2-0.1-2.4-0.2l-0.4-0.2c-0.4-0.2-0.6-0.4-1.2-0.9
					c-0.2-0.2-0.5-0.4-0.7-0.6l-0.3-0.3c-21.3-20.1-39.4-18.8-59.9-10.7c-3.6,1.5-4,1.5-7.6,1.6l-7.7,0l-0.5-1.4
					c-1.6-4.6-5.9-7.7-10.8-7.7h-20.1c-6.2,0-11.3,5.1-11.3,11.3v52.7c0,6.2,5.1,11.3,11.3,11.3h20.1c4.9,0,9.2-3.1,10.8-7.7
					L184.1,369.4z"/>
			</g>
			<g>
				<path d="M291.6,360.6h-64.3v-4h64.3c9.2,0,16.6-7.4,16.6-16.6c0-1.2-0.2-2.4-0.4-3.7c0,0-0.7-3.9-4.3-7.7l2.9-2.7
					c4.5,4.8,5.3,9.6,5.3,9.8c0.2,1.4,0.4,2.8,0.4,4.3C312.2,351.4,303,360.6,291.6,360.6z"/>
			</g>
			<g>
				<path d="M171.2,367.3h-16.7c-2.6,0-4.7-2.1-4.7-4.7v-43.8c0-2.6,2.1-4.7,4.7-4.7h16.7c2.5,0,4.7,2.2,4.7,4.7v43.8
					C175.9,365.1,173.7,367.3,171.2,367.3z M154.5,318.1c-0.4,0-0.7,0.3-0.7,0.7v43.8c0,0.4,0.3,0.7,0.7,0.7h16.7
					c0.3,0,0.7-0.3,0.7-0.7v-43.8c0-0.3-0.3-0.7-0.7-0.7H154.5z"/>
			</g>
		</g>
		<g>
			<g>
				<path d="M344.2,189.2h-0.4c-14-0.3-24.9-11.4-24.9-25.2c0-13.9,11.3-25.2,25.2-25.2c13.9,0,25.2,11.3,25.2,25.2
					c0,13.6-11.1,24.9-24.7,25.2L344.2,189.2z M344.1,142.8c-11.7,0-21.2,9.5-21.2,21.2c0,11.6,9.2,20.9,20.9,21.2l0.8,0
					c11.4-0.3,20.7-9.8,20.7-21.2C365.3,152.3,355.8,142.8,344.1,142.8z"/>
			</g>
			<g>
				<path d="M257.6,186.1l-3.8,0C236,185,222,170.2,222,152.4c0-18.6,15.1-33.7,33.7-33.7c18.6,0,33.7,15.1,33.7,33.7
					C289.4,170.2,275.4,185,257.6,186.1L257.6,186.1z M254,182.1h3.5c15.7-1,28-14,28-29.7c0-16.4-13.3-29.7-29.7-29.7
					S226,136,226,152.4C226,168.1,238.3,181.1,254,182.1z"/>
			</g>
			<g>
				<path d="M168.1,189.2h-0.4c-14-0.3-24.9-11.4-24.9-25.2c0-13.9,11.3-25.2,25.2-25.2s25.2,11.3,25.2,25.2
					c0,13.6-11.1,24.9-24.7,25.2L168.1,189.2z M168,142.8c-11.7,0-21.2,9.5-21.2,21.2c0,11.6,9.2,20.9,20.9,21.2l0.8,0
					c11.4-0.3,20.7-9.8,20.7-21.2C189.2,152.3,179.7,142.8,168,142.8z"/>
			</g>
			<g>
				<path d="M183,240.4h-64.5l0.2-2.2c2.6-25,23.6-44,48.8-44.2h0.6c11.8,0.1,22.7,4.2,31.6,11.8l1.6,1.3l-1.4,1.5
					c-7.9,8.6-13.6,19-16.5,30.3L183,240.4z M123.1,236.4H180c3-10.6,8.4-20.5,15.6-28.9c-7.9-6.2-17.3-9.4-27.4-9.5h-0.6
					C145.2,198.2,126.5,214.5,123.1,236.4z"/>
			</g>
			<g>
				<path d="M298.8,283.2h-86.1c-12.5,0-22.7-10.2-22.7-22.7v-3.8c0-17.2,6.6-33.5,18.6-45.8c12-12.3,28-19.4,45.1-19.9l0.2,0l0.2,0
					c0.4,0.1,1,0.1,1.6,0.1s1.1,0,1.6-0.1l0.2,0l0.2,0c17.1,0.5,33.2,7.6,45.1,19.9c12,12.3,18.6,28.6,18.6,45.8v1.8l0.1,2
					C321.5,273,311.3,283.2,298.8,283.2z M253.7,195c-33.5,1.1-59.7,28.1-59.7,61.7v3.8c0,10.3,8.4,18.7,18.7,18.7h86.1
					c9.7,0,17.6-7.4,18.6-16.8v-5.7c0-33.6-26.2-60.6-59.7-61.7c-0.7,0.1-1.4,0.1-2,0.1S254.4,195.1,253.7,195z"/>
			</g>
			<g>
				<path d="M393.3,240.4h-64.9l-0.4-1.5c-3-11.3-8.5-21.4-16.3-30.1l-1.4-1.5l1.5-1.3c8.8-7.6,20.1-11.9,31.8-12h0.6
					c25.2,0.2,46.2,19.2,48.8,44.2L393.3,240.4z M331.5,236.4h57.3c-3.4-21.9-22.2-38.2-44.5-38.4h-0.6c-10,0.1-19.8,3.5-27.6,9.7
					C323.3,216.1,328.5,225.7,331.5,236.4z"/>
			</g>
		</g>
	</g>
</g>
<g id="Guide" class="st0">
	<rect x="105.2" y="105.2" class="st1" width="301.7" height="301.7"/>
</g>
</svg>
