<?xml version="1.0" encoding="utf-8"?>
<!-- Generator: Adobe Illustrator 25.1.0, SVG Export Plug-In . SVG Version: 6.00 Build 0)  -->
<svg version="1.1" xmlns="http://www.w3.org/2000/svg" xmlns:xlink="http://www.w3.org/1999/xlink" x="0px" y="0px"
	 viewBox="0 0 512 512" style="enable-background:new 0 0 512 512;" xml:space="preserve">
<style type="text/css">
	.st0{fill:none;stroke:#000000;stroke-width:4;stroke-miterlimit:10;}
	.st1{display:none;}
	.st2{display:inline;fill:none;stroke:#FF0000;stroke-width:2;stroke-miterlimit:10;}
</style>
<g id="Icon">
	<g>
		<g>
			<path class="st0" d="M346.3,349.9l17.4-12.4c8.3-5.9,10.7-16.5,5.6-24.7c-5-8.1-15.5-10.7-24.6-6.1l0,0l-39.9,20.5
				c-3.4-3.5-8.1-5.7-13.3-5.7h-27.3c-1.5,0-1.9-0.1-1.9-0.1c-0.2-0.1-0.9-0.8-1.5-1.3l-0.2-0.2c-22.1-20.8-40.8-19.5-62-11.1
				c-3.4,1.4-3.5,1.4-6.9,1.5l-6.2,0c-1.8-5.3-6.8-9.1-12.7-9.1h-20.1c-7.3,0-13.3,6-13.3,13.3v52.7c0,7.3,6,13.3,13.3,13.3h20.1
				c5.9,0,10.9-3.8,12.7-9.1h11.3c1,0,1,0,2.2,0.3c0.4,0.1,0.9,0.3,1.6,0.4l52,13.9c2.3,0.6,4.4,1.2,6.4,1.8
				c6.7,1.9,12.3,3.6,18.1,3.6c6.6,0,13.5-2.1,22.5-8.1c0,0,0.1-0.1,0.1-0.1l9.9-7.1L346.3,349.9z"/>
			<path class="st0" d="M227.3,358.6h64.3c10.2,0,18.6-8.3,18.6-18.6c0-1.4-0.2-2.7-0.4-4c0,0-0.7-4.4-4.8-8.8"/>
			<path class="st0" d="M173.9,362.6c0,1.5-1.3,2.7-2.7,2.7h-16.7c-1.5,0-2.7-1.2-2.7-2.7v-43.8c0-1.5,1.2-2.7,2.7-2.7h16.7
				c1.5,0,2.7,1.3,2.7,2.7V362.6z"/>
		</g>
		<g>
			<path class="st0" d="M320.9,164c0-12.8,10.4-23.2,23.2-23.2s23.2,10.4,23.2,23.2c0,12.6-10.2,22.9-22.7,23.2c-0.2,0-0.3,0-0.4,0
				s-0.3,0-0.4,0C331,186.9,320.9,176.6,320.9,164z"/>
			<path class="st0" d="M224,152.4c0-17.5,14.2-31.7,31.7-31.7s31.7,14.2,31.7,31.7c0,16.9-13.3,30.7-29.9,31.7c-0.6,0-1.2,0-1.8,0
				s-1.2,0-1.8,0C237.3,183.1,224,169.3,224,152.4z"/>
			<path class="st0" d="M144.8,164c0-12.8,10.4-23.2,23.2-23.2c12.8,0,23.2,10.4,23.2,23.2c0,12.6-10.2,22.9-22.7,23.2
				c-0.2,0-0.3,0-0.4,0c-0.2,0-0.3,0-0.4,0C154.9,186.9,144.8,176.6,144.8,164z"/>
			<path class="st0" d="M181.5,238.4h-60.7c2.5-23.7,22.5-42.2,46.8-42.4c0.1,0,0.2,0,0.3,0s0.2,0,0.3,0
				c11.6,0.1,22.1,4.3,30.3,11.3C190.5,216,184.6,226.6,181.5,238.4z"/>
			<path class="st0" d="M319.5,260.5c0,11.4-9.3,20.7-20.7,20.7h-86.1c-11.4,0-20.7-9.3-20.7-20.7v-3.8c0-34.5,27.5-62.7,61.8-63.7
				c0.6,0.1,1.3,0.1,1.9,0.1c0.6,0,1.3,0,1.9-0.1c34.3,1,61.8,29.2,61.8,63.7V260.5z"/>
			<path class="st0" d="M330,238.4c-3.1-11.7-8.9-22.2-16.8-30.9c8.2-7.1,18.9-11.4,30.5-11.5c0.1,0,0.2,0,0.3,0c0.1,0,0.2,0,0.3,0
				c24.3,0.2,44.3,18.7,46.8,42.4H330z"/>
		</g>
	</g>
</g>
<g id="Guide" class="st1">
	<rect x="105.2" y="105.2" class="st2" width="301.7" height="301.7"/>
</g>
</svg>
