<?xml version="1.0" encoding="utf-8"?>
<!-- Generator: Adobe Illustrator 25.0.1, SVG Export Plug-In . SVG Version: 6.00 Build 0)  -->
<svg version="1.1" id="Layer_1" xmlns="http://www.w3.org/2000/svg" xmlns:xlink="http://www.w3.org/1999/xlink" x="0px" y="0px"
	 viewBox="0 0 512 512" style="enable-background:new 0 0 512 512;" xml:space="preserve">
<style type="text/css">
	.st0{fill:#333333;}
</style>
<g>
	<g>
		<path class="st0" d="M335.7,363.2c-2.4,2.4-2.4,6.2,0,8.6c1.2,1.2,2.7,1.8,4.3,1.8s3.1-0.6,4.3-1.8l0,0c2.4-2.4,2.4-6.2,0-8.6
			S338.1,360.9,335.7,363.2L335.7,363.2z"/>
		<path class="st0" d="M363.9,304.3l-48.3,24.8c-4.1-4.2-9.8-6.9-16.2-6.9h-33.1c-1.9,0-2.3-0.1-2.3-0.2c-0.3-0.1-1.1-0.9-1.8-1.6
			l-0.3-0.3c-26.8-25.2-49.4-23.6-75.1-13.5c-4.2,1.6-4.2,1.6-8.4,1.8l-7.5,0c-2.1-6.4-8.2-11.1-15.3-11.1h-24.3
			c-8.9,0-16.1,7.2-16.1,16.2v63.8c0,8.9,7.2,16.1,16.1,16.1h24.3c7.1,0,13.2-4.6,15.3-11.1h13.7c1.2,0,1.2,0,2.6,0.4
			c0.5,0.1,1.1,0.3,1.9,0.5l62.9,16.8c2.8,0.7,5.3,1.5,7.8,2.2c8.1,2.3,14.8,4.3,21.9,4.3c8,0,16.3-2.5,27.3-9.8
			c0.1,0,0.1-0.1,0.2-0.1l12-8.6c2.7-2,3.4-5.7,1.4-8.5c-2-2.7-5.7-3.4-8.5-1.4l-11.9,8.5c-15.9,10.6-22.7,8.6-39,3.9
			c-2.5-0.7-5.1-1.5-8-2.3l-63-16.8c-0.7-0.2-1.3-0.4-1.8-0.5c-2.3-0.6-3.2-0.9-5.9-0.9h-12.9v-49.6h6.6c0.1,0,0.2,0,0.3,0l0.3,0
			c5.1-0.2,6.5-0.4,12.4-2.7c22.6-8.9,40-10,62.3,11l0.3,0.3c3.8,3.6,6,5,12.5,5h33.1c3.9,0,7.3,2.2,9,5.3c0,0,0,0.1,0.1,0.1
			c0.8,1.5,1.2,3.1,1.2,4.9c0,5.7-4.6,10.3-10.3,10.3h-53.6c-3.4,0-6.1,2.7-6.1,6.1c0,3.4,2.7,6.1,6.1,6.1h53.6
			c12.4,0,22.5-10.1,22.5-22.5c0-1.7-0.2-3.3-0.5-4.9l48.1-24.7c4.5-2.3,10.8-2.1,13.9,2.9c2.7,4.4,1.2,10.3-3.5,13.7l-21.1,15
			c-2.7,1.9-3.4,5.7-1.4,8.5c1.2,1.7,3.1,2.6,5,2.6c1.2,0,2.5-0.4,3.5-1.1l21.1-15c10-7.1,12.9-20,6.8-30
			C387.6,301.9,374.8,298.7,363.9,304.3L363.9,304.3z M159.6,377.5c0,2.2-1.8,4-4,4h-24.3c-2.2,0-4-1.8-4-4v-63.8c0-2.2,1.8-4,4-4
			h24.3c2.2,0,4,1.8,4,4V377.5z"/>
	</g>
	<g>
		<g>
			<path class="st0" d="M363.8,187.7c8.6-6.1,14.4-16.2,14.4-27.6c0-18.6-15.1-33.7-33.7-33.7c-18.6,0-33.7,15.1-33.7,33.7
				c0,11.4,5.7,21.5,14.4,27.6c-7.4,2.6-14.2,6.5-19.9,11.7c-7.9-6.7-17.2-11.9-27.4-14.9c12.3-7.5,20.6-21.1,20.6-36.6
				c0-23.6-19.1-42.7-42.7-42.7S213,124.3,213,147.9c0,15.5,8.2,29.1,20.6,36.6c-10.1,3-19.2,8.1-27.1,14.7
				c-5.7-5-12.4-8.9-19.7-11.5c8.6-6.1,14.4-16.2,14.4-27.6c0-18.6-15.1-33.7-33.7-33.7s-33.7,15.1-33.7,33.7
				c0,11.4,5.7,21.5,14.4,27.6c-23.2,8-39.9,30-39.9,55.9v3.9c0,0.1,0.1,0.2,0.2,0.2H180c-0.4,3.2-0.6,6.5-0.6,9.9v4
				c0,17.2,13.9,31.1,31.1,31.1h90.6c17.2,0,31.1-13.9,31.1-31.1v-4c0-3.3-0.2-6.7-0.6-9.9h71.9c0.1,0,0.2-0.1,0.2-0.2v-3.9
				C403.6,217.7,387,195.7,363.8,187.7z M320.1,160c0-13.4,10.9-24.4,24.4-24.4s24.4,10.9,24.4,24.4c0,13.3-10.7,24.1-23.9,24.4
				c-0.2,0-0.3,0-0.5,0s-0.3,0-0.5,0C330.7,184.2,320.1,173.4,320.1,160z M222.2,147.9c0-18.4,15-33.4,33.4-33.4s33.4,15,33.4,33.4
				c0,17.8-14,32.3-31.4,33.3c-0.6,0-1.3,0-1.9,0c-0.6,0-1.3,0-1.9,0C236.2,180.2,222.2,165.6,222.2,147.9z M143,160
				c0-13.4,10.9-24.4,24.4-24.4s24.4,10.9,24.4,24.4c0,13.3-10.7,24.1-23.9,24.4c-0.2,0-0.3,0-0.5,0s-0.3,0-0.5,0
				C153.7,184.2,143,173.4,143,160z M181.7,238.3h-63.9c2.6-24.9,23.7-44.4,49.2-44.6c0.1,0,0.2,0,0.4,0s0.2,0,0.4,0
				c12.2,0.1,23.3,4.6,31.9,11.9C191.1,214.7,184.9,226,181.7,238.3z M322.7,261.6c0,12-9.8,21.7-21.7,21.7h-90.6
				c-12,0-21.7-9.8-21.7-21.7v-4c0-36.3,29-66,65-67c0.6,0.1,1.3,0.1,2,0.1c0.6,0,1.3,0,2-0.1c36.1,1.1,65,30.7,65,67V261.6z
				 M329.6,238.3c-3.2-12.3-9.4-23.4-17.7-32.5c8.6-7.5,19.9-12,32.1-12.1c0.1,0,0.2,0,0.4,0s0.2,0,0.4,0
				c25.5,0.2,46.6,19.7,49.2,44.6H329.6z"/>
		</g>
	</g>
</g>
</svg>
